<svg width="18" height="26" viewBox="0 0 18 26" fill="none" xmlns="http://www.w3.org/2000/svg">
<path d="M6.80505 12.3807V11.327C6.80525 11.2787 6.8444 11.2393 6.89271 11.2393H7.94645C8.18864 11.2385 8.38481 11.0423 8.38543 10.8003V9.7466C8.38564 9.69808 8.425 9.65893 8.47331 9.65872H9.52705C9.57536 9.65893 9.61472 9.69808 9.61493 9.7466V10.8003C9.61555 11.0423 9.81172 11.2385 10.0539 11.2393H11.1076C11.156 11.2393 11.1951 11.2787 11.1953 11.327V12.3807C11.1951 12.4292 11.156 12.4684 11.1076 12.4686H10.0539C9.81172 12.4692 9.61555 12.6654 9.61493 12.9076V13.9613C9.61472 14.0096 9.57536 14.049 9.52705 14.049H8.47331C8.425 14.049 8.38564 14.0096 8.38543 13.9613V12.9076C8.38481 12.6654 8.18864 12.4692 7.94645 12.4686H6.89271C6.8444 12.4684 6.80525 12.4292 6.80505 12.3807ZM2.63434 6.14658H3.4115H3.41129C3.66077 6.425 4.01664 6.58451 4.39045 6.58556H13.61H13.6098C13.9836 6.58452 14.3395 6.425 14.5889 6.14658H15.3659V22.3909H2.63424L2.63434 6.14658ZM5.92691 12.3807C5.92774 12.6367 6.02979 12.882 6.21075 13.0629C6.39171 13.2439 6.63682 13.3459 6.89275 13.3466H7.50748V13.9613C7.50831 14.2172 7.61014 14.4623 7.79111 14.6433C7.97228 14.8245 8.21738 14.9263 8.47332 14.9271H9.52706C9.78299 14.9263 10.0281 14.8245 10.2093 14.6433C10.3902 14.4623 10.4921 14.2172 10.4929 13.9613V13.3466H11.1076C11.3636 13.3459 11.6087 13.2439 11.7896 13.0629C11.9706 12.882 12.0726 12.6367 12.0735 12.3807V11.327C12.0726 11.0711 11.9706 10.826 11.7896 10.645C11.6087 10.464 11.3636 10.362 11.1076 10.3611H10.4929V9.74664C10.4921 9.4907 10.3902 9.24539 10.2093 9.06442C10.0281 8.88346 9.783 8.78141 9.52706 8.78079H8.47332C8.21739 8.78141 7.97229 8.88346 7.79111 9.06442C7.61014 9.24538 7.50831 9.4907 7.50748 9.74664V10.3614L6.89275 10.3612C6.63682 10.362 6.39172 10.464 6.21075 10.645C6.02979 10.826 5.92774 11.0711 5.92691 11.327V12.3807ZM4.3905 17.1222C4.39112 17.3644 4.58729 17.5606 4.82948 17.5612H8.78071C9.0231 17.5612 9.21969 17.3646 9.21969 17.1222C9.21969 16.8798 9.0231 16.6832 8.78071 16.6832H4.82948C4.58729 16.6839 4.39112 16.88 4.3905 17.1222ZM4.3905 19.3173C4.39112 19.5595 4.58729 19.7557 4.82948 19.7565H13.171C13.4136 19.7565 13.61 19.56 13.61 19.3173C13.61 19.0749 13.4136 18.8784 13.171 18.8784H4.82948C4.58729 18.879 4.39112 19.0752 4.3905 19.3173ZM16.6834 3.51234H14.9273V5.26845H15.8053C16.0475 5.26907 16.2436 5.46524 16.2443 5.70743V22.8297C16.2436 23.0719 16.0475 23.2681 15.8053 23.2687H2.19506C1.95287 23.2681 1.7567 23.0719 1.75608 22.8297V5.70743C1.7567 5.46524 1.95287 5.26907 2.19506 5.26845H3.07303L3.07324 3.51234H1.31714C0.968116 3.51338 0.633693 3.65249 0.386918 3.89926C0.140148 4.14603 0.00103956 4.48045 0 4.82947V23.7078C0.00104121 24.0569 0.140148 24.3911 0.386918 24.6378C0.633688 24.8848 0.968111 25.0237 1.31714 25.0248H16.6829C17.0319 25.0237 17.3663 24.8848 17.6131 24.6378C17.8599 24.3911 17.999 24.0569 18 23.7078V4.82947C17.999 4.48045 17.8599 4.14603 17.6131 3.89926C17.3663 3.65249 17.0319 3.51338 16.6829 3.51234H16.6834ZM3.95175 5.26845L3.95154 2.63415C3.95238 2.39196 4.14854 2.19579 4.39073 2.19517H5.74285C6.0952 1.32535 6.78076 0.63253 7.64684 0.270977C8.51314 -0.0903256 9.48771 -0.0903256 10.354 0.270977C11.2201 0.632487 11.9056 1.3253 12.258 2.19517H13.6101C13.8523 2.1958 14.0485 2.39196 14.0493 2.63415V5.26845C14.0485 5.51064 13.8523 5.7068 13.6101 5.70743H4.39057H4.39078C4.14859 5.7068 3.95242 5.51064 3.95159 5.26845H3.95175ZM7.68329 3.07333C7.68412 3.31552 7.88028 3.51148 8.12247 3.51231H9.87858H9.87837C10.121 3.51231 10.3176 3.31572 10.3176 3.07333C10.3176 2.83072 10.121 2.63414 9.87837 2.63414H8.12243C7.88024 2.63497 7.68407 2.83114 7.68324 3.07333H7.68329Z" fill="#E7A814"/>
</svg>
