<svg width="16" height="16" viewBox="0 0 16 16" fill="none" xmlns="http://www.w3.org/2000/svg">
<g clip-path="url(#clip0_56_13)">
<path fill-rule="evenodd" clip-rule="evenodd" d="M12.0435 1.17512C11.8677 1.05261 11.6685 0.99918 11.4654 1.03958C11.2623 1.07998 11.0904 1.18945 10.968 1.36018L10.2818 2.3285C10.0383 2.22033 9.78439 2.13822 9.51356 2.07045C9.24272 2.00268 8.98882 1.94795 8.71799 1.90755L8.50054 0.640787C8.46148 0.423144 8.3521 0.265451 8.19325 0.142945C8.01747 0.02044 7.83127 -0.0199607 7.61512 0.02044L6.02918 0.305852C5.82606 0.346252 5.66721 0.44139 5.53179 0.617328C5.40939 0.793267 5.35601 0.979632 5.39637 1.19597L5.5995 2.35326C5.34169 2.46143 5.1021 2.58393 4.87163 2.72859C4.64116 2.86413 4.4159 3.02704 4.21148 3.18473L3.13596 2.44318C2.96018 2.32068 2.77398 2.26724 2.57085 2.30764C2.36773 2.34804 2.19585 2.45752 2.07346 2.63346L1.15809 3.94192C1.0357 4.11786 0.982313 4.31725 1.02268 4.52056C1.06304 4.7382 1.17242 4.8959 1.3482 5.0184L2.31565 5.70521C2.20757 5.94892 2.12554 6.20306 2.05783 6.47413C1.99012 6.74521 1.93544 6.99934 1.89507 7.27042L0.630751 7.48806C-0.442166 7.69006 0.164605 9.2292 0.296115 9.96163C0.33648 10.1649 0.431532 10.3239 0.603407 10.4595C0.779188 10.582 0.965386 10.6354 1.18153 10.595L2.33778 10.3917C2.44585 10.6497 2.56825 10.8895 2.71278 11.1202C2.8482 11.3509 3.01096 11.5764 3.16851 11.794L2.42762 12.8574C2.30523 13.0334 2.25184 13.2198 2.29221 13.4231C2.33257 13.6264 2.44065 13.7984 2.61252 13.9209L3.93153 14.8475C4.10731 14.97 4.30653 15.0104 4.50965 14.97C4.71278 14.9296 4.88465 14.8345 5.02007 14.6624L5.70757 13.6811C5.95106 13.7893 6.20497 13.8714 6.4758 13.9391C6.74663 14.0069 6.99924 14.0617 7.27137 14.1021L7.48882 15.3688C7.52918 15.5865 7.63856 15.7441 7.79611 15.8667C7.97189 15.9892 8.15809 16.0296 8.37424 15.9892L9.96017 15.7037C10.1633 15.6633 10.3222 15.5682 10.4576 15.3962C10.58 15.2202 10.6333 15.0339 10.593 14.8175L10.3899 13.6602C10.6477 13.5521 10.8873 13.4296 11.1177 13.2849C11.3482 13.1494 11.5748 12.9904 11.7909 12.8288L12.8534 13.5703C13.0292 13.6928 13.2154 13.7463 13.4315 13.7059C13.649 13.6655 13.8065 13.556 13.9289 13.3853L14.8547 12.0638C14.9771 11.8878 15.0175 11.6884 14.9771 11.4851C14.9367 11.2818 14.8417 11.1098 14.6659 10.9743L13.6841 10.3005C13.7922 10.0568 13.8742 9.80263 13.9419 9.53156C14.0097 9.26048 14.0643 9.00635 14.1047 8.73527L15.3703 8.51763C15.5878 8.47723 15.7453 8.36775 15.8677 8.20615C15.9901 8.03021 16.0305 7.84385 15.9901 7.62751L15.705 6.04015C15.6646 5.83684 15.5695 5.67785 15.3977 5.54231C15.2219 5.4198 15.0357 5.36637 14.8195 5.40677L13.6633 5.61008C13.5552 5.36637 13.4328 5.12657 13.2883 4.88156C13.1529 4.63785 12.9901 4.42542 12.8326 4.22081L13.5735 3.14433C13.6958 2.96839 13.7492 2.78203 13.7089 2.57872C13.6685 2.37541 13.5591 2.20338 13.3886 2.08088L12.08 1.16078L12.0435 1.17512ZM6.40158 6.79343L7.53049 7.86861L9.4745 5.89288C9.6672 5.6974 9.78699 5.5397 10.0253 5.78471L10.7948 6.57318C11.0487 6.8234 11.0344 6.96937 10.7961 7.20135L7.97059 9.97727C7.46799 10.4699 7.55653 10.4999 7.04611 9.99421L5.10601 8.0654C5.00054 7.95071 5.01096 7.83472 5.12684 7.71874L6.02007 6.79082C6.15418 6.65137 6.26226 6.6605 6.40158 6.79343ZM8.00575 3.0909C10.7167 3.0909 12.9159 5.29078 12.9159 8.00545C12.9159 10.7188 10.718 12.92 8.00575 12.92C5.29351 12.92 3.09559 10.7188 3.09559 8.00415C3.09559 5.29078 5.29481 3.0909 8.00575 3.0909Z" fill="#713BDB" fill-opacity="0.5"/>
</g>
<defs>
<clipPath id="clip0_56_13">
<rect width="16" height="16" fill="white"/>
</clipPath>
</defs>
</svg>
